<?xml version="1.0" encoding="utf-8"?>
<!-- Generator: Adobe Illustrator 24.0.1, SVG Export Plug-In . SVG Version: 6.00 Build 0)  -->
<svg version="1.1" id="레이어_1" xmlns="http://www.w3.org/2000/svg" xmlns:xlink="http://www.w3.org/1999/xlink" x="0px"
	 y="0px" viewBox="0 0 244 35" style="enable-background:new 0 0 244 35;" xml:space="preserve">
<style type="text/css">
	.st0{fill:#FFFFFF;}
</style>
<g>
	<path class="st0" d="M26.2,4.2c1.2,0.5,2.2,1.2,2.8,2c0.6,0.9,1,1.9,1,3c0,0.6-0.1,1.2-0.3,1.7c-0.7,2.4-2.7,4-6.1,4.7
		c1.2,0.3,2.1,0.9,2.8,1.7c0.7,0.8,1,1.8,1,2.9c0,0.5-0.1,1.2-0.3,1.9c-0.5,1.9-1.6,3.3-3.2,4.2c-1.6,0.9-3.9,1.4-6.9,1.4H2
		c-0.5,0-0.9-0.1-1.2-0.3c-0.3-0.2-0.4-0.4-0.4-0.7c0-0.1,0-0.3,0.1-0.5c0.1-0.3,0.3-0.5,0.5-0.6c0.2-0.1,0.4-0.2,0.4-0.3
		c0.4-0.2,0.7-0.5,0.9-0.7c0.2-0.3,0.4-0.7,0.6-1.3L7.3,7.7c0.1-0.3,0.1-0.6,0.1-0.9c0-0.3,0-0.5-0.1-0.7C7.3,5.9,7.2,5.7,7,5.5
		C6.8,5.2,6.7,4.9,6.7,4.7c0-0.1,0-0.2,0.1-0.4C6.9,4,7.1,3.8,7.4,3.7c0.3-0.1,0.8-0.2,1.5-0.2h13C23.6,3.5,25,3.7,26.2,4.2z
		 M17.9,19.2c0-1.3-0.8-2-2.3-2h-1.8l-2.1,7.2h1.9c1,0,1.9-0.3,2.5-0.8c0.6-0.5,1.1-1.5,1.5-2.8C17.8,20.2,17.9,19.7,17.9,19.2z
		 M20.6,8.6c0-1.3-0.7-1.9-2.1-1.9h-1.6l-1.9,6.8h1.6c1,0,1.8-0.2,2.4-0.7c0.6-0.5,1.1-1.4,1.4-2.7C20.5,9.6,20.6,9.1,20.6,8.6z"/>
	<path class="st0" d="M48.7,10c1.7,1,2.5,2.6,2.5,4.7c0,0.8-0.1,1.7-0.4,2.7l-1.5,5c0,0.1,0,0.2,0,0.4c0,0.4,0.2,0.6,0.5,0.6
		c0.3,0,0.5-0.1,0.7-0.4c0.2-0.3,0.3-0.4,0.4-0.4c0.1,0,0.2,0.1,0.3,0.3c0.1,0.2,0.1,0.4,0.1,0.6c0,0.7-0.2,1.3-0.7,2
		c-0.5,0.7-1.2,1.2-2.1,1.7c-0.9,0.4-1.8,0.7-2.9,0.7c-1.3,0-2.3-0.2-3.2-0.7c-0.9-0.5-1.5-1.1-1.9-2c-0.7,0.9-1.6,1.5-2.6,2
		c-1,0.5-2.1,0.7-3.2,0.7c-1.3,0-2.4-0.2-3.2-0.7c-0.9-0.5-1.5-1.1-1.9-1.9c-0.4-0.8-0.6-1.6-0.6-2.5c0-0.4,0-0.8,0.1-1.1
		c0.4-1.7,1.2-2.9,2.5-3.8c1.3-0.8,2.8-1.3,4.6-1.3c2,0,4,0.3,5.9,0.9L43,15c0.3-1,0.5-1.8,0.5-2.4c0-0.6-0.2-1-0.6-1.3
		c-0.4-0.3-0.9-0.4-1.7-0.4c0.1,0.4,0.2,0.8,0.2,1.2c0,0.9-0.3,1.7-1,2.3c-0.7,0.7-1.7,1-2.9,1c-1.2,0-2.1-0.3-2.8-0.8
		c-0.7-0.5-1-1.2-1-1.9c0-1.2,0.7-2.2,2-3c1.4-0.8,3.4-1.2,6.2-1.2C44.8,8.4,47,9,48.7,10z M38.3,20.2c-0.4,0.5-0.6,1.1-0.6,1.7
		c0,0.4,0.1,0.7,0.3,0.9c0.2,0.2,0.4,0.4,0.8,0.4c0.3,0,0.7-0.1,1-0.4c0.4-0.3,0.6-0.6,0.8-1.1l0.8-2.1c-0.4-0.1-0.9-0.1-1.4-0.1
		C39.3,19.5,38.7,19.7,38.3,20.2z"/>
	<path class="st0" d="M67.5,1.6c0.7,0.5,1,1.3,1,2.2c0,0.5-0.1,1.1-0.3,1.6l-5.7,18.6c-0.1,0.3-0.1,0.5-0.1,0.8
		c0,0.3,0.1,0.6,0.2,0.7c0.1,0.2,0.3,0.4,0.5,0.5c0.2,0.2,0.3,0.3,0.4,0.4s0.1,0.2,0,0.4c-0.1,0.3-0.4,0.5-0.7,0.7
		c-0.4,0.1-0.9,0.2-1.7,0.2h-8.3c-0.6,0-1.1-0.1-1.4-0.3c-0.3-0.2-0.4-0.5-0.3-0.8c0.1-0.3,0.4-0.5,0.8-0.8c0.4-0.2,0.7-0.4,0.9-0.7
		c0.2-0.3,0.4-0.7,0.6-1.3L59,5.7c0.1-0.2,0.1-0.4,0.1-0.5c0-0.3-0.1-0.5-0.2-0.7c-0.1-0.2-0.3-0.3-0.5-0.5
		c-0.2-0.2-0.4-0.4-0.5-0.5c-0.1-0.1-0.1-0.3-0.1-0.6c0.1-0.6,0.9-1,2.3-1.5c1.4-0.4,2.8-0.6,4.3-0.6C65.8,0.8,66.8,1.1,67.5,1.6z"
		/>
	<path class="st0" d="M80.8,1.6c0.7,0.5,1,1.3,1,2.2c0,0.5-0.1,1.1-0.3,1.6l-5.7,18.6c-0.1,0.3-0.1,0.5-0.1,0.8
		c0,0.3,0.1,0.6,0.2,0.7c0.1,0.2,0.3,0.4,0.5,0.5c0.2,0.2,0.3,0.3,0.4,0.4c0.1,0.1,0.1,0.2,0,0.4c-0.1,0.3-0.4,0.5-0.7,0.7
		c-0.4,0.1-0.9,0.2-1.7,0.2h-8.3c-0.6,0-1.1-0.1-1.4-0.3c-0.3-0.2-0.4-0.5-0.3-0.8c0.1-0.3,0.4-0.5,0.8-0.8c0.4-0.2,0.7-0.4,0.9-0.7
		c0.2-0.3,0.4-0.7,0.6-1.3l5.5-18.2c0.1-0.2,0.1-0.4,0.1-0.5c0-0.3-0.1-0.5-0.2-0.7c-0.1-0.2-0.3-0.3-0.5-0.5
		c-0.2-0.2-0.4-0.4-0.5-0.5C71,3.3,71,3.1,71.1,2.9c0.1-0.6,0.9-1,2.3-1.5c1.4-0.4,2.8-0.6,4.3-0.6C79.1,0.8,80.2,1.1,80.8,1.6z"/>
	<path class="st0" d="M101.3,9.7c0.6,0.9,1,2,1,3.5c0,1.3-0.2,2.7-0.7,4.1c-0.9,3-2.3,5.8-4.3,8.4c-2,2.6-4.2,4.8-6.8,6.4
		c-2.6,1.6-5.1,2.4-7.7,2.4c-1.3,0-2.3-0.2-3.3-0.7c-0.9-0.4-1.6-1-2.1-1.7c-0.5-0.7-0.7-1.5-0.7-2.3c0-0.4,0.1-0.8,0.2-1.2
		c0.2-0.7,0.6-1.2,1.1-1.6c0.5-0.4,1.1-0.5,1.8-0.5c1.1,0,2,0.4,2.7,1.1c0.7,0.8,1.2,1.8,1.4,3.1c1.6-0.1,3-0.7,4.3-2
		c-1.2-0.2-2.2-0.6-2.7-1.3c-0.6-0.6-1-1.6-1.2-2.9l-1.5-8.9c-0.1-0.5-0.2-0.8-0.3-1c-0.1-0.2-0.3-0.3-0.5-0.3
		c-0.2,0-0.4,0.1-0.6,0.3c-0.2,0.2-0.4,0.3-0.5,0.3c-0.2,0-0.3-0.2-0.3-0.6c0-0.3,0.1-0.7,0.2-1.1c0.4-1.4,1.2-2.6,2.4-3.5
		c1.2-1,2.6-1.4,4.1-1.4c1.6,0,2.7,0.5,3.4,1.4c0.7,0.9,1.2,2.3,1.4,4.3l1.1,8c0.1,0.6,0.3,0.9,0.7,0.9c0.4,0,0.9-0.4,1.5-1.2
		c0.6-0.8,1.2-1.9,1.7-3.4c-0.7-0.7-1.3-1.4-1.7-2.3c-0.4-0.8-0.6-1.8-0.6-2.7c0-0.8,0.1-1.4,0.3-2c0.3-1,0.7-1.7,1.4-2.2
		s1.3-0.7,2.1-0.7C99.8,8.4,100.6,8.9,101.3,9.7z"/>
	<path class="st0" d="M127.8,4c0.5,0.4,0.7,0.9,0.7,1.6c0,0.3,0,0.7-0.1,1l-0.9,3.4c-0.2,0.6-0.4,1.1-0.8,1.3
		c-0.4,0.3-0.9,0.4-1.5,0.4c-0.6,0-1.1-0.1-1.5-0.4c-0.4-0.3-0.6-0.7-0.8-1.3L122.2,8c-0.1-0.4-0.2-0.6-0.4-0.7
		c-0.1-0.1-0.4-0.2-0.9-0.2h-3.6l-2,7.2h0.7c0.3,0,0.6,0,0.9-0.1c0.3-0.1,0.5-0.3,0.8-0.5l1.1-0.9c0.4-0.4,0.8-0.6,1.1-0.8
		c0.3-0.2,0.7-0.2,1-0.2c0.5,0,0.8,0.1,1.1,0.4c0.3,0.3,0.5,0.6,0.5,1.1c0,0.2,0,0.4-0.1,0.7l-1.6,5.5c-0.4,1.2-1,1.8-2,1.8
		c-0.8,0-1.4-0.4-1.8-1.2l-0.7-1.2c-0.2-0.3-0.3-0.6-0.5-0.7c-0.1-0.1-0.4-0.1-0.7-0.1h-1.1l-1.5,5.4c0,0.1-0.1,0.3-0.1,0.6
		c0,0.3,0.1,0.6,0.2,0.8c0.2,0.2,0.4,0.5,0.7,0.7c0.3,0.2,0.4,0.4,0.5,0.5c0.1,0.1,0.1,0.3,0.1,0.5c0,0.4-0.2,0.7-0.6,0.9
		c-0.4,0.2-1,0.3-1.7,0.3h-9.1c-0.6,0-1.1-0.1-1.4-0.3c-0.3-0.2-0.4-0.6-0.3-1c0-0.2,0.1-0.4,0.3-0.5c0.1-0.1,0.3-0.3,0.6-0.5
		c0.4-0.2,0.7-0.5,1-0.8c0.2-0.3,0.4-0.7,0.6-1.2L108,7.7c0.1-0.3,0.1-0.6,0.1-0.9c0-0.3,0-0.5-0.1-0.7c-0.1-0.2-0.2-0.4-0.4-0.6
		c-0.2-0.3-0.3-0.6-0.3-0.8c0-0.1,0-0.2,0.1-0.4c0.1-0.3,0.3-0.5,0.7-0.7s0.8-0.2,1.5-0.2h16.2C126.6,3.5,127.3,3.7,127.8,4z"/>
	<path class="st0" d="M137.6,9.2c0.7,0.5,1,1.3,1,2.2c0,0.6-0.1,1.1-0.3,1.6L135,23.9c-0.1,0.3-0.1,0.5-0.1,0.8
		c0,0.3,0.1,0.6,0.2,0.7c0.1,0.2,0.3,0.4,0.5,0.5c0.2,0.2,0.3,0.3,0.4,0.4c0.1,0.1,0.1,0.2,0,0.4c-0.1,0.3-0.4,0.5-0.7,0.7
		c-0.4,0.1-0.9,0.2-1.7,0.2h-8.3c-0.6,0-1.1-0.1-1.4-0.3c-0.3-0.2-0.4-0.5-0.3-0.8c0.1-0.3,0.4-0.5,0.8-0.8c0.4-0.2,0.7-0.4,0.9-0.7
		c0.2-0.3,0.4-0.7,0.6-1.3l3.2-10.5c0.1-0.2,0.1-0.4,0.1-0.5c0-0.3-0.1-0.5-0.2-0.6c-0.1-0.2-0.3-0.3-0.5-0.5
		c-0.2-0.2-0.4-0.4-0.5-0.5c-0.1-0.1-0.1-0.3,0-0.6c0.1-0.6,0.9-1,2.3-1.5c1.4-0.4,2.8-0.6,4.3-0.6C135.9,8.4,136.9,8.7,137.6,9.2z
		 M139.3,1.3c0.6,0.6,0.9,1.4,0.9,2.3c0,0.6-0.2,1.2-0.5,1.9c-0.3,0.6-0.8,1.1-1.4,1.5c-0.6,0.4-1.3,0.6-2,0.6
		c-0.9,0-1.7-0.3-2.3-0.9c-0.6-0.6-0.9-1.4-1-2.3c0-0.6,0.2-1.2,0.5-1.8c0.3-0.6,0.8-1.1,1.3-1.5c0.6-0.4,1.2-0.6,2-0.6
		C137.9,0.4,138.7,0.7,139.3,1.3z"/>
	<path class="st0" d="M155.6,9.2c0.3,0.2,0.4,0.5,0.4,0.8c0,0.1,0,0.3-0.1,0.5c-0.3,1.1-1,1.6-2.2,1.6h-2.1l-2.7,9
		c-0.1,0.4-0.2,0.7-0.2,1.1c0,0.4,0.1,0.7,0.4,0.9c0.2,0.2,0.6,0.3,1,0.3c0.4,0,0.9,0,1.5-0.1c0.3-0.1,0.5-0.1,0.8-0.1
		c0.2,0,0.3,0.1,0.4,0.2c0.1,0.1,0.1,0.2,0.1,0.4c0,0.5-0.3,1.1-1.1,1.8s-1.7,1.3-3,1.8c-1.3,0.5-2.7,0.7-4.2,0.7
		c-1.7,0-3-0.4-4-1.1c-1-0.8-1.5-1.8-1.5-3.1c0-0.6,0.1-1.2,0.3-1.7l2.3-7.2c0.1-0.4,0.2-0.7,0.2-1c0-0.5-0.1-0.9-0.3-1.2
		c-0.2-0.3-0.6-0.7-1-1.1c-0.4-0.3-0.6-0.6-0.8-0.9c-0.1-0.2-0.2-0.5-0.1-0.8c0.1-0.3,0.3-0.6,0.6-0.7c0.3-0.2,0.8-0.3,1.5-0.3h2
		l2.3-2.3c0.8-0.8,1.5-1.4,2.2-1.7c0.7-0.3,1.5-0.5,2.6-0.5c1.5,0,2.3,0.6,2.3,1.7c0,0.4,0,0.7-0.1,1l-0.5,1.7h1.9
		C155,8.9,155.3,9,155.6,9.2z"/>
	<path class="st0" d="M176.4,22.7c0,0.1-0.1,0.2-0.1,0.4c0,0.2,0,0.3,0.1,0.4c0.1,0.1,0.2,0.1,0.3,0.1c0.3,0,0.5-0.1,0.7-0.4
		c0.2-0.3,0.3-0.4,0.4-0.4c0.1,0,0.2,0.1,0.3,0.2c0.1,0.2,0.1,0.3,0.1,0.6c0,0.7-0.2,1.4-0.7,2.1c-0.5,0.7-1.2,1.2-2.1,1.6
		c-0.9,0.4-2.1,0.6-3.4,0.6c-1.6,0-2.9-0.4-3.8-1.1s-1.4-1.7-1.5-3c0-0.9,0.2-1.9,0.7-3l2-5.2c0.1-0.3,0.2-0.6,0.2-0.8
		c0-0.3-0.1-0.6-0.3-0.7c-0.2-0.2-0.5-0.3-0.7-0.3c-0.5,0-1,0.2-1.5,0.7c-0.5,0.5-0.8,1.1-1.1,1.8l-2.3,7.4
		c-0.1,0.3-0.1,0.5-0.1,0.8c0,0.3,0.1,0.5,0.2,0.7c0.1,0.2,0.3,0.4,0.5,0.6c0.2,0.1,0.3,0.3,0.4,0.4s0.1,0.3,0,0.4
		c-0.1,0.3-0.3,0.5-0.7,0.7c-0.4,0.1-0.9,0.2-1.7,0.2h-8.3c-0.6,0-1.1-0.1-1.4-0.3c-0.3-0.2-0.4-0.5-0.3-0.8
		c0.1-0.3,0.4-0.5,0.8-0.8c0.4-0.2,0.7-0.4,0.9-0.7c0.2-0.3,0.4-0.7,0.6-1.3l3.2-10.5c0-0.1,0.1-0.3,0.1-0.5c0-0.3-0.1-0.5-0.2-0.6
		c-0.1-0.1-0.3-0.3-0.5-0.5c-0.2-0.2-0.4-0.4-0.5-0.5c-0.1-0.1-0.1-0.3,0-0.6c0.1-0.6,0.9-1,2.3-1.5c1.4-0.4,2.8-0.6,4.3-0.6
		c1.2,0,2.2,0.3,2.9,1c0.7,0.7,1,1.6,0.9,2.8c1-1.4,2.1-2.4,3.2-3c1.1-0.5,2.3-0.8,3.6-0.8c1.5,0,2.7,0.5,3.6,1.3
		c0.9,0.9,1.4,2.1,1.4,3.5c0,0.8-0.1,1.5-0.4,2.2L176.4,22.7z"/>
	<path class="st0" d="M199,9.7c1.4,1,2.1,2.2,2.1,3.8c0,0.5,0,0.9-0.1,1.3c-0.4,1.6-1.4,2.7-3,3.4c-1.7,0.7-3.6,1-5.9,1
		c-1.1,0-2.2-0.1-3.2-0.2c0,1.3,0.3,2.1,1,2.7s1.7,0.8,2.9,0.8c0.6,0,1.1-0.1,1.7-0.2c0.5-0.1,1.2-0.3,2-0.6
		c0.7-0.2,1.1-0.4,1.4-0.4c0.3,0,0.4,0.2,0.4,0.5c0,0.8-0.3,1.7-0.9,2.7c-0.7,0.9-1.6,1.7-2.9,2.4c-1.3,0.7-2.8,1-4.7,1
		c-2.7,0-4.9-0.7-6.6-2c-1.7-1.4-2.6-3.3-2.6-5.9c0-0.7,0.1-1.6,0.3-2.5c0.6-3,1.9-5.2,4-6.7c2-1.5,4.5-2.3,7.5-2.3
		C195.3,8.3,197.6,8.8,199,9.7z M189.4,16.9c1,0,1.8-0.5,2.3-1.4c0.5-0.9,0.8-2,0.8-3.2c0-0.7-0.2-1-0.6-1c-0.3,0-0.6,0.2-0.9,0.6
		c-0.4,0.4-0.7,1.1-1.1,1.9c-0.4,0.8-0.6,1.9-0.9,3C189.1,16.9,189.3,16.9,189.4,16.9z"/>
	<path class="st0" d="M217.5,8.7c1.5,0.4,2.6,0.9,3.4,1.5c0.8,0.7,1.2,1.4,1.2,2.2c0,0.8-0.3,1.5-1,2.1c-0.7,0.5-1.6,0.8-2.8,0.8
		c-1.2,0-2.2-0.3-3.1-0.9c-0.8-0.6-1.3-1.4-1.3-2.3c0-0.3,0-0.6,0.1-0.9c-0.4-0.1-0.8-0.2-1.2-0.2c-0.6,0-1.1,0.1-1.5,0.4
		c-0.4,0.3-0.6,0.7-0.6,1.2c0,0.6,0.3,1.2,0.9,1.6c0.6,0.4,1.6,1,3.1,1.6c1.2,0.5,2.2,1,3,1.5c0.8,0.4,1.5,1,2,1.7
		c0.5,0.7,0.8,1.5,0.8,2.4c0,0.2,0,0.6-0.1,1.1c-0.4,1.6-1.5,2.9-3.2,3.9c-1.8,0.9-4.1,1.4-7,1.4c-3.2,0-5.8-0.4-7.7-1.3
		c-1.9-0.9-2.9-2.1-2.9-3.6c0-1,0.3-1.8,0.9-2.4c0.6-0.5,1.5-0.8,2.5-0.8c1.2,0,2.2,0.4,3.1,1.1c0.9,0.8,1.3,1.7,1.3,2.9
		c0,0.3,0,0.6-0.1,1c0.6,0.1,1.1,0.2,1.7,0.2c0.6,0,1.2-0.2,1.6-0.5c0.4-0.3,0.6-0.8,0.6-1.4c0-0.6-0.3-1-0.8-1.4
		c-0.5-0.4-1.4-0.9-2.5-1.4c-1.1-0.5-2-1-2.7-1.4c-0.7-0.4-1.3-1-1.8-1.7c-0.5-0.7-0.7-1.5-0.7-2.4c0-2,0.8-3.6,2.5-4.7
		c1.7-1.2,4-1.8,7.1-1.8C214.3,8.1,216,8.3,217.5,8.7z"/>
	<path class="st0" d="M239.1,8.7c1.5,0.4,2.6,0.9,3.4,1.5c0.8,0.7,1.2,1.4,1.2,2.2c0,0.8-0.3,1.5-1,2.1c-0.7,0.5-1.6,0.8-2.8,0.8
		c-1.2,0-2.2-0.3-3.1-0.9c-0.8-0.6-1.3-1.4-1.3-2.3c0-0.3,0-0.6,0.1-0.9c-0.4-0.1-0.8-0.2-1.2-0.2c-0.6,0-1.1,0.1-1.5,0.4
		c-0.4,0.3-0.6,0.7-0.6,1.2c0,0.6,0.3,1.2,0.9,1.6c0.6,0.4,1.6,1,3.1,1.6c1.2,0.5,2.2,1,3,1.5c0.8,0.4,1.5,1,2,1.7
		c0.5,0.7,0.8,1.5,0.8,2.4c0,0.2,0,0.6-0.1,1.1c-0.4,1.6-1.5,2.9-3.2,3.9c-1.8,0.9-4.1,1.4-7,1.4c-3.2,0-5.8-0.4-7.7-1.3
		c-1.9-0.9-2.9-2.1-2.9-3.6c0-1,0.3-1.8,0.9-2.4c0.6-0.5,1.5-0.8,2.5-0.8c1.2,0,2.2,0.4,3.1,1.1c0.9,0.8,1.3,1.7,1.3,2.9
		c0,0.3,0,0.6-0.1,1c0.6,0.1,1.1,0.2,1.7,0.2c0.6,0,1.2-0.2,1.6-0.5c0.4-0.3,0.6-0.8,0.6-1.4c0-0.6-0.3-1-0.8-1.4
		c-0.5-0.4-1.4-0.9-2.5-1.4c-1.1-0.5-2-1-2.7-1.4c-0.7-0.4-1.3-1-1.8-1.7c-0.5-0.7-0.7-1.5-0.7-2.4c0-2,0.8-3.6,2.5-4.7
		c1.7-1.2,4-1.8,7.1-1.8C235.9,8.1,237.6,8.3,239.1,8.7z"/>
</g>
</svg>
