<?xml version="1.0" encoding="utf-8"?>
<!-- Generator: Adobe Illustrator 24.0.1, SVG Export Plug-In . SVG Version: 6.00 Build 0)  -->
<svg version="1.1" id="레이어_1" xmlns="http://www.w3.org/2000/svg" xmlns:xlink="http://www.w3.org/1999/xlink" x="0px"
	 y="0px" viewBox="0 0 139 33" style="enable-background:new 0 0 139 33;" xml:space="preserve">
<style type="text/css">
	.st0{fill:#FFFFFF;}
</style>
<g>
	<path class="st0" d="M14.2,0.7L13.7,3h3l0.5-2.4h8l-3,13.8h-19l3-13.8H14.2z M9.3,26.7L9.1,28h21.4l-1,4.7H0l2.3-10.7h21.1l0.3-1.3
		H2.6l1-4.7h29l-2.3,10.7H9.3z M15.1,10.1l0.6-2.6h-3l-0.6,2.6H15.1z M35.2,4.8h3.2l-1.2,5.4H34l-1,4.7h-8l3.2-14.6h8L35.2,4.8z"/>
	<path class="st0" d="M55.9,19.1H45.8l-1.3,6h11l-1.4,6.4h-19l4.1-18.8h10.2l1.2-5.6H40.4l1.4-6.4H60L55.9,19.1z M64.7,32.7h-8
		l7.1-32.5h8L64.7,32.7z"/>
	<path class="st0" d="M91.4,20.9h-8.7l-2.6,11.9H69.8l7-32h21l-3.1,8.2h-9.5l-0.9,4.3h8.7L91.4,20.9z"/>
	<path class="st0" d="M93.9,32.7l7-32h10.2l-7,32H93.9z"/>
	<path class="st0" d="M137.3,8.9h-7.4l-5.2,23.8h-10.2l5.2-23.8h-7.4l1.8-8.2h25.1L137.3,8.9z"/>
</g>
</svg>
