<?xml version="1.0" encoding="utf-8"?>
<!-- Generator: Adobe Illustrator 24.0.1, SVG Export Plug-In . SVG Version: 6.00 Build 0)  -->
<svg version="1.1" id="레이어_1" xmlns="http://www.w3.org/2000/svg" xmlns:xlink="http://www.w3.org/1999/xlink" x="0px"
	 y="0px" viewBox="0 0 641 72" style="enable-background:new 0 0 641 72;" xml:space="preserve">
<style type="text/css">
	.st0{fill:#FFFFFF;}
</style>
<g>
	<path class="st0" d="M39,71H21V15H0V1h60v14H39V71z M90.92,1h19l16.5,34l16.5-34h19l-26.5,51.5V71h-18V52.5L90.92,1z M191.33,1h42
		c7,0,12.08,1.58,15.25,4.75c3.17,3.17,4.75,8.25,4.75,15.25v9c0,5.53-0.92,9.83-2.75,12.9c-1.83,3.07-4.75,5.1-8.75,6.1l12.5,22
		h-19.5l-11.5-21h-14v21h-18V1z M235.33,21c0-4-2-6-6-6h-20v21h20c4,0,6-2,6-6V21z M302.25,71h-19.5l26.5-70h20l26.5,70h-19.5
		l-4.5-12.5h-25L302.25,71z M311.25,45.5h16l-8-23.5L311.25,45.5z M446.17,71h-19l-24-42v42h-18V1h19l24,42V1h18V71z M542.58,71h-19
		l-24-42v42h-18V1h19l24,42V1h18V71z M641,52c0,7-1.58,12.08-4.75,15.25C633.08,70.42,628,72,621,72h-25c-7,0-12.08-1.58-15.25-4.75
		C577.58,64.08,576,59,576,52V20c0-7,1.58-12.08,4.75-15.25C583.92,1.58,589,0,596,0h25c7,0,12.08,1.58,15.25,4.75
		C639.42,7.92,641,13,641,20V52z M623,20c0-4-2-6-6-6h-17c-4,0-6,2-6,6v32c0,4,2,6,6,6h17c4,0,6-2,6-6V20z"/>
</g>
</svg>
